<?xml version="1.0" encoding="UTF-8" standalone="no"?>
<svg
   xmlns:dc="http://purl.org/dc/elements/1.1/"
   xmlns:cc="http://creativecommons.org/ns#"
   xmlns:rdf="http://www.w3.org/1999/02/22-rdf-syntax-ns#"
   xmlns:svg="http://www.w3.org/2000/svg"
   xmlns="http://www.w3.org/2000/svg"
   id="svg873"
   version="1.1"
   class="svg-inline--fa fa-drone fa-w-16 fa-3x"
   viewBox="0 0 512 512"
   role="img"
   data-icon="drone"
   data-prefix="fad"
   focusable="false"
   aria-hidden="true">
  <metadata
     id="metadata879">
    <rdf:RDF>
      <cc:Work
         rdf:about="">
        <dc:format>image/svg+xml</dc:format>
        <dc:type
           rdf:resource="http://purl.org/dc/dcmitype/StillImage" />
        <dc:title></dc:title>
      </cc:Work>
    </rdf:RDF>
  </metadata>
  <defs
     id="defs877" />
  <g
     id="g871"
     class="fa-group">
    <path
       id="path867"
       class="fa-secondary"
       d="M300.34 160l38.86-28.06a64.05 64.05 0 1 1 40.86 40.86L352 211.66v1.56A111.93 111.93 0 1 0 298.78 160zm-88.68 192L172 380.64a64.06 64.06 0 1 1-40.25-41.17L160 300.34v-1.08A111.93 111.93 0 1 0 212.22 352zM111 0a112 112 0 1 0 49 212.74v-1.08l-28.25-39.13A64 64 0 1 1 172 131.36L211.66 160h.56A112 112 0 0 0 111 0zm289 288a111.58 111.58 0 0 0-48 10.78v1.56l28.06 38.86a64.05 64.05 0 1 1-40.86 40.86L300.34 352h-1.56A112 112 0 1 0 400 288z"
       fill="currentColor" />
    <path
       id="path869"
       class="fa-primary"
       d="M432 399.19a31.91 31.91 0 1 1-63.8 1.81l-67.86-49h-88.68l-67.86 49a31.91 31.91 0 1 1-32.8-32.8l49-67.86v-88.68l-49-67.86a31.91 31.91 0 1 1 32.8-32.8l67.86 49h88.68l67.86-49a31.91 31.91 0 1 1 32.8 32.8l-49 67.86v88.68l49 67.86a31.9 31.9 0 0 1 31 30.99z"
       fill="currentColor" />
  </g>
  <text
     id="text883"
     y="319.04794"
     x="185.33554"
     style="font-style:normal;font-weight:normal;font-size:40px;line-height:1.25;font-family:sans-serif;letter-spacing:0px;word-spacing:0px;fill:#000000;fill-opacity:1;stroke:none"
     xml:space="preserve"><tspan
       style="font-style:normal;font-variant:normal;font-weight:bold;font-stretch:normal;font-size:192px;font-family:Ubuntu;-inkscape-font-specification:'Ubuntu Bold';fill:#ffffff"
       y="319.04794"
       x="185.33554"
       id="tspan881">K</tspan></text>
</svg>
