<?xml version="1.0" encoding="UTF-8" standalone="no"?>
<svg
   xmlns:dc="http://purl.org/dc/elements/1.1/"
   xmlns:cc="http://creativecommons.org/ns#"
   xmlns:rdf="http://www.w3.org/1999/02/22-rdf-syntax-ns#"
   xmlns:svg="http://www.w3.org/2000/svg"
   xmlns="http://www.w3.org/2000/svg"
   xmlns:sodipodi="http://sodipodi.sourceforge.net/DTD/sodipodi-0.dtd"
   xmlns:inkscape="http://www.inkscape.org/namespaces/inkscape"
   aria-hidden="true"
   focusable="false"
   data-prefix="fad"
   data-icon="drone"
   role="img"
   viewBox="0 0 512 512"
   class="svg-inline--fa fa-drone fa-w-16 fa-3x"
   version="1.1"
   id="svg8"
   sodipodi:docname="drone-logo-2.svg"
   inkscape:version="0.92.3 (2405546, 2018-03-11)">
  <metadata
     id="metadata14">
    <rdf:RDF>
      <cc:Work
         rdf:about="">
        <dc:format>image/svg+xml</dc:format>
        <dc:type
           rdf:resource="http://purl.org/dc/dcmitype/StillImage" />
        <dc:title></dc:title>
      </cc:Work>
    </rdf:RDF>
  </metadata>
  <defs
     id="defs12" />
  <sodipodi:namedview
     pagecolor="#ffffff"
     bordercolor="#666666"
     borderopacity="1"
     objecttolerance="10"
     gridtolerance="10"
     guidetolerance="10"
     inkscape:pageopacity="0"
     inkscape:pageshadow="2"
     inkscape:window-width="1600"
     inkscape:window-height="793"
     id="namedview10"
     showgrid="false"
     inkscape:zoom="1.3037281"
     inkscape:cx="194.63751"
     inkscape:cy="317.36249"
     inkscape:window-x="0"
     inkscape:window-y="27"
     inkscape:window-maximized="1"
     inkscape:current-layer="svg8" />
  <g
     class="fa-group"
     id="g6">
    <path
       fill="currentColor"
       d="M300.34 160l38.86-28.06a64.05 64.05 0 1 1 40.86 40.86L352 211.66v1.56A111.93 111.93 0 1 0 298.78 160zm-88.68 192L172 380.64a64.06 64.06 0 1 1-40.25-41.17L160 300.34v-1.08A111.93 111.93 0 1 0 212.22 352zM111 0a112 112 0 1 0 49 212.74v-1.08l-28.25-39.13A64 64 0 1 1 172 131.36L211.66 160h.56A112 112 0 0 0 111 0zm289 288a111.58 111.58 0 0 0-48 10.78v1.56l28.06 38.86a64.05 64.05 0 1 1-40.86 40.86L300.34 352h-1.56A112 112 0 1 0 400 288z"
       class="fa-secondary"
       id="path2" />
    <path
       fill="currentColor"
       d="M432 399.19a31.91 31.91 0 1 1-63.8 1.81l-67.86-49h-88.68l-67.86 49a31.91 31.91 0 1 1-32.8-32.8l49-67.86v-88.68l-49-67.86a31.91 31.91 0 1 1 32.8-32.8l67.86 49h88.68l67.86-49a31.91 31.91 0 1 1 32.8 32.8l-49 67.86v88.68l49 67.86a31.9 31.9 0 0 1 31 30.99z"
       class="fa-primary"
       id="path4" />
  </g>
  <rect
     id="rect3719"
     width="130.16949"
     height="99.796616"
     x="190.91525"
     y="203.93221" />
  <path
     style="stroke-width:2.16949153"
     d="m 102.53546,429.42106 c -3.624482,-1.05405 -9.419742,-4.87007 -12.878356,-8.48011 -5.120623,-5.34478 -6.458646,-8.91743 -7.205218,-19.23868 -0.852071,-11.77978 -0.426246,-13.23379 6.028716,-20.58559 4.01712,-4.57524 10.538462,-8.98699 15.467118,-10.46365 7.57182,-2.26857 11.1763,-6.23903 32.34116,-35.62477 l 23.81959,-33.07162 V 256 210.04336 L 136.28888,176.97173 C 115.12402,147.586 111.51954,143.61555 103.94772,141.34697 99.019064,139.87032 92.497722,135.45856 88.480602,130.88331 82.02564,123.53152 81.599815,122.0775 82.451886,110.29774 83.197605,99.98827 84.538252,96.40197 89.635264,91.081836 106.80272,73.162875 135.52158,81.169085 142.02814,105.68786 c 1.47408,5.55482 7.99346,11.26588 35.20035,30.83599 l 33.39119,24.01852 h 45.45153 45.45153 l 33.39559,-24.05293 c 29.81752,-21.47583 33.63483,-24.94129 35.62822,-32.3442 2.76693,-10.275523 14.11684,-20.613528 24.83981,-22.625169 12.08018,-2.266254 25.6986,5.063986 31.43916,16.922414 5.6924,11.758915 5.58918,17.682735 -0.49616,28.472765 -3.78858,6.71767 -7.3912,9.65142 -15.94817,12.98731 -10.34778,4.03401 -12.597,6.44634 -35.20573,37.7587 l -24.15173,33.44937 V 256 300.88936 l 24.40407,33.79886 c 19.52542,27.0421 25.63378,34.04476 30.55544,35.02911 8.93933,1.78785 17.75666,8.7801 21.78996,17.27969 4.6436,9.78567 4.44236,15.42617 -0.94768,26.5605 -5.74056,11.85842 -19.35898,19.18865 -31.43916,16.9224 -10.72297,-2.01164 -22.07288,-12.34963 -24.83981,-22.62517 -1.99339,-7.40289 -5.8107,-10.86835 -35.62822,-32.34419 l -33.39559,-24.05293 h -45.45153 -45.45153 l -33.39119,24.01852 c -27.20689,19.57012 -33.72627,25.28118 -35.20035,30.83599 -2.80826,10.58241 -9.25365,18.08922 -18.81695,21.91568 -9.68659,3.87579 -11.15906,3.9608 -20.67573,1.19324 z"
     id="path3721"
     inkscape:connector-curvature="0" />
  <path
     style="stroke-width:2.16949153;fill:#000000;fill-opacity:1"
     d="m 102.53546,429.42106 c -3.624482,-1.05405 -9.419742,-4.87007 -12.878356,-8.48011 -5.120623,-5.34478 -6.458646,-8.91743 -7.205218,-19.23868 -0.852071,-11.77978 -0.426246,-13.23379 6.028716,-20.58559 3.940222,-4.48766 10.54078,-8.98768 15.254428,-10.39993 7.28469,-2.18256 11.27118,-6.56896 32.34116,-35.58563 L 160.10847,302.0349 V 256 209.9651 l -24.03228,-33.09622 c -21.06998,-29.01667 -25.05647,-33.40308 -32.34116,-35.58563 -4.619472,-1.38403 -11.288199,-5.88265 -15.018567,-10.13131 -5.786146,-6.59005 -6.709683,-9.30902 -6.709683,-19.75385 0,-11.10994 0.673048,-12.781941 8.135593,-20.210604 C 101.25608,80.124235 111.5518,78.298508 124.9376,85.01729 c 7.26893,3.648517 11.10701,7.383198 14.07373,13.694574 2.24354,4.772886 4.8321,10.142376 5.75236,11.932206 0.92027,1.78983 16.16815,13.74915 33.88419,26.57627 l 32.21097,23.32203 h 45.27918 45.27919 l 33.1891,-24.0356 c 29.12523,-21.09252 33.49382,-25.05259 35.67753,-32.34116 3.04861,-10.175376 14.91913,-21.021404 25.09674,-22.930732 11.12263,-2.086618 25.06932,5.280152 31.43333,16.603364 9.39331,16.713148 2.30092,34.576798 -17.02962,42.892568 -9.75508,4.19652 -13.07785,7.78764 -34.77313,37.58143 l -23.98744,32.94154 V 256 300.74622 l 24.09604,33.09069 c 15.92791,21.87355 26.03991,33.79321 29.83051,35.16318 15.95229,5.76532 23.52822,13.67129 25.65413,26.77174 2.99496,18.4558 -17.07806,38.39747 -35.22382,34.9933 -10.17761,-1.90933 -22.04813,-12.75536 -25.09674,-22.93073 -2.18371,-7.28858 -6.5523,-11.24864 -35.67753,-32.34117 l -33.1891,-24.0356 h -45.27919 -45.27918 l -32.21097,23.32203 c -17.71604,12.82712 -32.96392,24.78644 -33.88419,26.57627 -0.92026,1.78983 -3.51428,7.15932 -5.76449,11.93221 -2.89741,6.14564 -6.87935,10.10241 -13.64562,13.55932 -10.27881,5.25149 -12.67888,5.5222 -22.81812,2.5736 z"
     id="path3723"
     inkscape:connector-curvature="0" />
  <path
     style="fill:#00a7e3;fill-opacity:1;stroke-width:1.02469528"
     d="M 184.4082 203.93164 L 184.4082 303.72852 L 321.08398 303.72852 L 321.08398 203.93164 L 184.4082 203.93164 z "
     id="rect3727" />
  <text
     xml:space="preserve"
     style="font-style:normal;font-weight:normal;font-size:74.72826385px;line-height:1.25;font-family:sans-serif;letter-spacing:0px;word-spacing:0px;fill:#f6e800;fill-opacity:1;stroke:none;stroke-width:1.86820662;"
     x="213.96231"
     y="293.12582"
     id="text3731"
     transform="scale(0.99347565,1.0065672)"><tspan
       sodipodi:role="line"
       id="tspan3729"
       x="213.96231"
       y="293.12582"
       style="font-style:normal;font-variant:normal;font-weight:bold;font-stretch:normal;font-size:119.56522369px;font-family:Ubuntu;-inkscape-font-specification:'Ubuntu Bold';fill:#f6e800;stroke-width:1.86820662;fill-opacity:1;">K</tspan></text>
  <flowRoot
     xml:space="preserve"
     id="flowRoot3733"
     style="fill:black;fill-opacity:1;stroke:none;font-family:sans-serif;font-style:normal;font-weight:normal;font-size:40px;line-height:1.25;letter-spacing:0px;word-spacing:0px"><flowRegion
       id="flowRegion3735"><rect
         id="rect3737"
         width="47.728813"
         height="99.796608"
         x="186.57628"
         y="234.30508" /></flowRegion><flowPara
       id="flowPara3739"></flowPara></flowRoot>  <path
     style="fill:#00a7e3;fill-opacity:1;stroke-width:2.16949153"
     d="M 75.870815,504.74381 C 22.861377,486.67808 -8.570086,431.72946 2.8313682,377.05594 14.449111,321.34524 72.260636,281.17256 127.34915,290.52971 c 8.35254,1.41874 18.80459,4.23672 23.22676,6.26219 l 8.04032,3.68268 -13.46405,18.86164 c -11.04729,15.47603 -14.24288,18.62395 -17.80303,17.5374 -2.38644,-0.72833 -10.3273,-1.28531 -17.64636,-1.23772 -54.779856,0.35616 -83.785343,66.05555 -47.151461,106.80125 13.305715,14.79916 24.065605,20.09894 43.365331,21.35959 27.75591,1.81302 50.68432,-10.90625 63.19118,-35.05456 4.86459,-9.39259 5.78937,-14.05069 5.96758,-30.05859 l 0.2109,-18.94353 18.01568,-13.19651 c 9.90862,-7.25808 18.29693,-12.88942 18.6407,-12.5141 3.10318,3.38808 8.26765,25.73612 9.18207,39.73326 3.25305,49.79491 -29.29517,97.01578 -77.03409,111.76084 -19.9337,6.15688 -48.835328,5.82656 -68.219856,-0.77974 z"
     id="path4549"
     inkscape:connector-curvature="0" />
  <path
     style="fill:#f6e800;fill-opacity:1;stroke-width:2.16949153"
     d="M 87.998815,220.21671 C 48.681698,211.66631 15.150283,180.08102 4.4591954,141.52563 -8.4896466,94.828084 10.340055,45.573244 51.260464,19.102611 c 35.846228,-23.1882422 83.788776,-23.1882422 119.635006,0 33.78525,21.855037 52.82321,59.429177 50.2293,99.134679 -0.91442,13.99714 -6.07889,36.34518 -9.18208,39.73326 -0.34376,0.37532 -8.75255,-5.27101 -18.68618,-12.54742 l -18.06116,-13.22982 -0.11997,-17.82547 C 174.92201,91.577032 169.08241,77.551803 154.16059,64.135801 141.72051,52.951096 128.00747,47.728814 111.07797,47.728814 c -24.647916,0 -46.479208,13.351387 -58.094648,35.529005 -8.08294,15.432934 -8.404849,40.749521 -0.716726,56.366971 11.019793,22.38531 33.213826,36.58182 57.436194,36.73931 7.31906,0.0476 15.25992,-0.50939 17.64636,-1.23772 3.56208,-1.08714 6.73946,2.053 17.74545,17.5374 l 13.40646,18.86164 -5.41074,2.85444 c -7.33319,3.86862 -32.43361,9.03327 -43.0971,8.86763 -4.77288,-0.0742 -14.670364,-1.438 -21.994405,-3.03078 z"
     id="path4551"
     inkscape:connector-curvature="0" />
  <path
     style="fill:#f6e800;fill-opacity:1;stroke-width:2.16949153"
     d="m 384.65085,509.3292 c -10.9579,-1.18771 -20.01907,-4.0216 -32.54238,-10.17766 -39.01834,-19.18016 -62.12915,-55.38215 -62.43124,-97.79561 -0.12556,-17.62857 5.2456,-44.15147 9.46983,-46.76219 0.9657,-0.59683 9.82644,4.82659 19.69053,12.05205 l 17.93471,13.1372 -0.65314,17.23686 c -0.55054,14.52896 0.1736,19.0353 4.60946,28.68477 7.51809,16.35439 15.10503,24.36219 30.25397,31.9322 11.10833,5.5509 15.82063,6.63437 28.8547,6.63437 37.55392,0 64.95145,-28.10272 64.65393,-66.31807 -0.25678,-32.98321 -27.91551,-61.41841 -60.65799,-62.36087 -6.97065,-0.20065 -15.11459,0.28861 -18.09764,1.08723 -4.88858,1.30878 -6.68407,-0.33116 -18.1973,-16.62076 -7.02546,-9.94005 -12.71028,-18.86657 -12.63293,-19.83673 0.23098,-2.89705 21.79446,-9.35443 36.01352,-10.78458 37.62662,-3.78449 80.34834,17.12583 101.33742,49.60002 32.62013,50.4697 20.3138,116.90776 -27.92224,150.74341 -24.06712,16.88212 -48.64733,22.91229 -79.68321,19.54836 z"
     id="path4557"
     inkscape:connector-curvature="0" />
  <path
     style="fill:#f6e800;fill-opacity:1;stroke-width:2.16949153"
     d="m 380.31186,221.33391 c -13.5321,-3.00926 -24.75779,-7.42675 -24.92517,-9.80849 -0.0838,-1.19322 5.49001,-10.17606 12.38636,-19.96188 10.27049,-14.57368 13.32375,-17.55304 16.8778,-16.46929 8.98413,2.73956 31.21777,0.9437 40.80146,-3.29562 23.17634,-10.252 38.84687,-33.2925 39.03555,-57.39426 0.21589,-27.578831 -12.05379,-48.177127 -35.75109,-60.018812 -11.15557,-5.5745 -15.854,-6.656744 -28.89948,-6.656744 -13.03407,0 -17.74637,1.083467 -28.8547,6.634365 -15.14894,7.570016 -22.73588,15.577813 -30.25397,31.932202 -4.43585,9.649471 -5.16,14.155809 -4.60946,28.684769 l 0.65314,17.23686 -17.8538,13.07793 c -9.81959,7.19287 -18.22227,13.07794 -18.67262,13.07794 -2.16448,0 -8.06436,-19.12138 -9.90391,-32.09834 -7.51813,-53.036114 28.68883,-107.158642 81.00641,-121.0891836 14.28579,-3.8038614 42.69203,-3.8038614 56.97782,0 48.23024,12.8422106 81.76285,56.6100086 81.62806,106.5434536 -0.13343,49.42379 -28.57683,89.05307 -75.57847,105.30103 -14.60539,5.04892 -41.19533,7.16578 -54.06393,4.30407 z"
     id="path4561"
     inkscape:connector-curvature="0" />
  <path
     style="fill:#00a7e3;fill-opacity:1;stroke-width:2.16949153"
     d="M 84.176271,218.10152 C 68.712344,213.66855 63.144596,211.05275 49.611249,201.86243 -6.7874708,163.56279 -14.65613,84.00811 33.193552,35.874252 76.998519,-8.190868 145.79337,-8.2236223 189.11922,35.800012 c 21.74365,22.093833 33.60866,54.338636 30.73332,83.522018 -1.53921,15.62241 -5.23839,32.66785 -7.68225,35.39916 -0.87206,0.97462 -9.52576,-3.87405 -19.23046,-10.77483 L 175.29492,131.3995 v -16.49972 c 0,-23.106101 -4.64789,-35.321197 -18.64852,-49.010172 -13.36683,-13.069271 -26.08148,-18.160794 -45.35148,-18.160794 -17.986834,0 -31.503506,5.021079 -44.167375,16.406987 -14.554328,13.085592 -20.664144,27.49452 -20.640824,48.677759 0.02178,19.77974 3.542576,28.69345 17.028107,43.11057 13.964542,14.92923 27.734524,20.59079 50.487242,20.75796 l 17.8936,0.13147 11.93691,16.06905 c 6.5653,8.83798 11.93691,16.77378 11.93691,17.6351 0,2.06036 -9.54103,5.79679 -21.69491,8.4961 -13.26352,2.94576 -38.018781,2.49316 -49.898309,-0.91229 z"
     id="path4563"
     inkscape:connector-curvature="0" />
  <path
     style="fill:#00a7e3;fill-opacity:1;stroke-width:2.16949153"
     d="m 370.11347,217.84825 c -5.60912,-1.72572 -10.8102,-4.12759 -11.55796,-5.33749 -1.57405,-2.54687 6.69743,-17.18824 15.74893,-27.87721 6.10646,-7.21116 6.62425,-7.37603 24.56337,-7.82101 21.76312,-0.53983 30.62765,-3.84439 44.42246,-16.56 15.33537,-14.13565 21.39771,-27.58442 21.3842,-47.43898 -0.0188,-27.663441 -12.09299,-47.111676 -36.94886,-59.514679 -9.06905,-4.525427 -14.28194,-5.570067 -27.79536,-5.570067 -20.2864,0 -35.6955,6.388768 -47.8453,19.837145 -12.58271,13.927554 -16.14507,23.938071 -16.20002,45.523411 l -0.0476,18.71648 -15.48051,11.29496 c -8.51429,6.21223 -16.7508,11.78241 -18.30336,12.37818 -3.8091,1.4617 -9.51378,-17.69791 -11.08853,-37.2417 -1.40828,-17.47772 2.59979,-36.466742 11.67698,-55.322036 8.29482,-17.230156 32.64092,-40.851283 51.6361,-50.098484 15.0771,-7.3398155 15.40592,-7.3930412 45.67183,-7.3930412 h 30.4854 l 16.93536,8.3699082 c 67.4181,33.319831 82.53653,122.554683 29.64843,174.996493 -15.51884,15.38789 -34.39694,25.90222 -53.96645,30.05711 -15.53634,3.29858 -40.50188,2.82748 -52.93907,-0.99899 z"
     id="path4565"
     inkscape:connector-curvature="0" />
  <path
     style="fill:#00a7e3;fill-opacity:1;stroke-width:2.16949153"
     d=""
     id="path4567"
     inkscape:connector-curvature="0" />
  <path
     style="fill:#00a7e3;fill-opacity:1;stroke-width:2.16949153"
     d="m 380.22948,507.49145 c -22.61893,-3.79092 -50.8551,-20.73361 -65.70379,-39.42459 -17.07189,-21.48947 -25.68881,-49.65058 -23.32329,-76.22324 1.52833,-17.16813 5.24335,-33.41089 8.03654,-35.13717 1.05535,-0.65225 9.72172,4.31295 19.25859,11.03376 l 17.33976,12.21966 0.0476,18.83363 c 0.0549,21.71231 3.59646,31.68991 16.20001,45.64054 4.40074,4.87109 13.45865,11.43825 20.12869,14.59368 10.89581,5.15455 14.01576,5.6414 30.72296,4.79416 21.34353,-1.08234 31.34215,-5.25409 43.98007,-18.34991 12.35922,-12.80703 17.79336,-26.95332 17.78007,-46.28553 -0.013,-18.8649 -6.11149,-33.40778 -19.43609,-46.34847 -13.03072,-12.65527 -25.35758,-17.32761 -46.42343,-17.59621 l -18.35602,-0.23404 -8.76263,-11.16134 c -4.81944,-6.13874 -10.49818,-14.10517 -12.61942,-17.70319 l -3.85679,-6.54184 14.3904,-4.44474 c 67.81979,-20.9474 139.76386,33.16079 139.76386,105.11458 0,40.8194 -24.14598,79.35344 -60.97439,97.30766 -22.43347,10.93656 -43.66696,14.02309 -68.19274,9.9126 z"
     id="path4569"
     inkscape:connector-curvature="0" />
  <path
     style="fill:#ffcc00;fill-opacity:1;stroke-width:0.76703107"
     d="M 99.904257,509.07401 C 85.580635,507.80302 75.929207,505.1211 62.938276,498.80195 51.793135,493.38065 42.319236,486.59094 33.407693,477.6381 20.682016,464.85346 11.281934,449.37565 5.943798,432.41715 c -6.08340972,-19.32614 -6.43624234,-42.9891 -0.934721,-62.6877 10.467086,-37.47817 45.205678,-69.31764 85.158802,-78.05184 7.911427,-1.72952 26.546311,-2.37287 34.604151,-1.19465 11.68624,1.70875 31.08255,7.69345 32.53123,10.03745 0.55651,0.90046 -19.53937,28.77008 -23.66422,32.81831 l -3.32369,3.26195 -9.73683,-0.79065 c -16.6279,-1.35023 -28.646216,0.73045 -40.353074,6.98614 -11.525477,6.15876 -20.119536,14.88135 -26.413863,26.8089 -10.648514,20.17858 -10.455169,42.38429 0.540227,62.04506 3.924871,7.01803 17.83158,21.31559 24.57022,25.26078 13.136313,7.69074 37.02998,9.40854 53.66933,3.85846 10.16876,-3.3918 16.66328,-7.49986 24.69174,-15.61858 7.55516,-7.6401 12.96762,-16.18013 15.84827,-25.00613 1.40556,-4.30648 1.67871,-7.3891 2.00495,-22.62741 l 0.3777,-17.64172 9.99171,-7.2868 c 19.13146,-13.95225 26.09229,-18.49208 26.76541,-17.45631 2.63241,4.05066 7.078,23.94425 8.27182,37.01561 3.58425,39.24452 -16.85725,79.39607 -51.81639,101.77867 -13.17033,8.43231 -29.45573,13.6845 -47.11042,15.19352 -9.74441,0.8329 -11.85538,0.8284 -21.711893,-0.0462 z"
     id="path4574"
     inkscape:connector-curvature="0" />
  <path
     style="fill:#ffcc00;fill-opacity:1;stroke-width:0.76703107"
     d="m 382.59608,219.92659 c -10.4996,-1.32737 -22.69559,-5.43963 -23.67095,-7.9814 -1.11819,-2.91393 10.1091,-21.42044 17.73725,-29.23721 4.59212,-4.70568 4.72194,-4.73772 23.11572,-5.70607 13.88417,-0.73094 22.70647,-2.32347 28.03051,-5.05986 9.37131,-4.81655 21.98162,-16.42809 28.13963,-25.9109 13.07895,-20.14045 11.95614,-51.854889 -2.55586,-72.191627 -7.88822,-11.054361 -23.48682,-21.758698 -36.46926,-25.026563 -6.9118,-1.739799 -28.00819,-1.300041 -35.66694,0.743485 -15.40193,4.109579 -29.31516,14.711597 -37.9041,28.883281 -6.00458,9.907513 -7.73425,18.730986 -7.73425,39.454284 v 13.65517 l -10.54668,7.66206 c -5.80067,4.21414 -13.46372,9.64553 -17.02899,12.06977 l -6.48231,4.4077 -1.33641,-1.6504 c -2.12842,-2.62849 -4.51193,-9.68461 -6.62504,-19.61274 -2.55815,-12.01907 -2.8826,-31.54205 -0.69471,-41.803191 1.8936,-8.880955 5.97424,-20.900658 9.62271,-28.344146 9.1474,-18.662192 32.69793,-41.646408 52.65072,-51.384643 14.00573,-6.8356937 11.60914,-6.4772101 45.34708,-6.7830162 l 30.00646,-0.2719833 11.43347,5.7262765 c 6.28841,3.149452 14.59907,7.843707 18.46813,10.431678 22.42577,15.000353 38.83746,38.905617 45.18972,65.823322 2.69364,11.414312 3.35099,30.319403 1.45143,41.742203 -4.16636,25.05389 -15.91527,46.00957 -35.87363,63.98517 -13.58079,12.23161 -32.44888,21.79264 -49.94954,25.31092 -6.72997,1.35297 -31.0796,2.02602 -38.65416,1.06843 z"
     id="path4576"
     inkscape:connector-curvature="0" />
  <path
     style="fill:#ffcc00;fill-opacity:1;stroke-width:0.76703107"
     d="m 376.27047,218.50049 c -7.78815,-1.73471 -14.83798,-4.30789 -16.15707,-5.8973 -0.71186,-0.85773 -0.7534,-1.81301 -0.16258,-3.73808 2.14149,-6.97762 15.83391,-26.19421 20.65448,-28.98748 1.82904,-1.05984 5.18875,-1.58245 13.80656,-2.14766 23.49778,-1.54113 30.37321,-3.10421 38.89567,-8.84263 6.76854,-4.55745 16.62617,-13.98097 20.92765,-20.00605 11.05649,-15.48678 14.12945,-38.19264 7.82156,-57.792973 C 458.74208,80.788733 454.77079,74.362248 446.889,66.543322 436.41309,56.150957 425.10379,49.839185 413.76605,48.057258 c -7.134,-1.121237 -26.17711,-0.413204 -32.50987,1.208736 -15.91598,4.076376 -32.40378,17.410834 -39.85726,32.234434 -4.58287,9.114485 -5.18834,12.606125 -5.58626,32.215302 l -0.358,17.64172 -13.43934,9.58789 c -7.39163,5.27334 -14.99261,10.6066 -16.89105,11.85171 l -3.45171,2.26382 -1.42541,-1.7603 c -1.62531,-2.00718 -4.5539,-10.82862 -6.39841,-19.27318 -1.9558,-8.95404 -2.42448,-30.13074 -0.86544,-39.103918 1.43163,-8.2399 6.34002,-23.352006 9.83291,-30.273888 9.6741,-19.171183 31.25151,-40.347795 51.93901,-50.974237 13.02821,-6.6921333 10.62952,-6.3161228 44.8527,-7.0309705 l 30.62424,-0.6396736 11.38536,5.8227091 c 16.60089,8.490042 24.20863,13.764422 34.03421,23.595587 16.40785,16.417183 27.17217,36.874262 30.63391,58.218289 1.72202,10.617442 1.5282,30.236152 -0.39181,39.657762 -4.48038,21.98561 -14.45268,39.79112 -31.63883,56.49103 -14.52473,14.11379 -31.5468,23.50942 -51.19563,28.25832 -3.4884,0.8431 -10.28386,1.30999 -22.62742,1.55463 -15.35312,0.3043 -18.48749,0.16127 -24.16148,-1.10254 z"
     id="path4578"
     inkscape:connector-curvature="0" />
  <path
     style="fill:#ffcc00;fill-opacity:1;stroke-width:0.76703107"
     d=""
     id="path4580"
     inkscape:connector-curvature="0" />
  <path
     style="fill:#ffcc00;fill-opacity:1;stroke-width:0.76703107"
     d="m 376.27047,218.44495 c -7.67354,-1.64382 -14.81416,-4.22365 -16.15189,-5.83551 -1.44408,-1.74001 0.0921,-5.86179 5.21463,-13.9916 5.66173,-8.98556 12.55297,-17.39306 15.50938,-18.92188 1.57025,-0.81202 7.13733,-1.56071 17.3082,-2.32774 23.38452,-1.76352 28.25761,-3.20593 39.29077,-11.62991 19.87643,-15.17596 28.88613,-33.89695 27.58166,-57.31114 C 463.68488,84.404937 451.28124,65.120879 430.05391,54.060022 418.73729,48.163307 416.8366,47.745068 401.5825,47.79499 c -7.38267,0.02416 -15.41687,0.445586 -17.85378,0.9365 -16.98938,3.422512 -34.76708,17.379448 -42.63998,33.475849 -4.17426,8.534418 -4.80533,12.325921 -5.24955,31.539431 l -0.4086,17.67275 -13.52118,9.63938 c -7.43665,5.30167 -15.0293,10.62457 -16.87255,11.82867 l -3.35137,2.18926 -1.43188,-1.76829 c -1.69189,-2.08939 -4.64953,-11.13186 -6.58407,-20.12958 -1.08145,-5.02993 -1.37679,-9.83543 -1.36117,-22.14784 0.0217,-17.137533 0.46941,-19.840274 5.80357,-35.037991 6.77005,-19.288782 21.11218,-37.626305 41.14588,-52.608205 9.79757,-7.326962 24.76311,-14.9205479 31.25992,-15.8614289 2.5312,-0.3665738 16.95826,-0.8808587 32.06013,-1.1428552 l 27.45794,-0.4763573 11.48353,5.8729194 c 16.74242,8.56242 24.295,13.79863 34.10617,23.645797 15.09712,15.1525 24.4002,31.542491 29.63688,52.213678 1.21703,4.804084 1.63719,9.54992 1.93535,21.860383 0.41833,17.27212 -0.49013,24.26726 -4.84168,37.28083 -10.60948,31.72823 -38.53851,58.67412 -71.76231,69.23621 -12.86703,4.09052 -40.75105,5.33826 -54.32328,2.43085 z"
     id="path4582"
     inkscape:connector-curvature="0" />
  <path
     style="fill:#ffcc00;fill-opacity:1;stroke-width:0.76703107"
     d="m 376.27047,218.46171 c -7.73669,-1.63744 -15.27103,-4.53439 -16.36322,-6.29166 -1.18131,-1.90066 1.06671,-6.99963 7.11468,-16.13755 6.11072,-9.23273 10.83487,-14.79253 13.92855,-16.39233 1.41655,-0.73253 7.45056,-1.54968 16.89906,-2.28854 17.8532,-1.39609 23.96248,-2.59324 30.96256,-6.06726 10.70052,-5.3105 23.60683,-18.27524 29.53368,-29.66737 4.92044,-9.45772 6.35904,-15.95704 6.43052,-29.05181 0.0507,-9.29102 -0.22725,-12.19526 -1.68848,-17.641718 -2.26351,-8.436744 -6.77897,-17.544629 -11.72875,-23.657356 -7.42262,-9.16659 -21.53195,-18.750996 -32.51837,-22.089585 -6.16287,-1.872792 -28.69334,-1.838387 -36.81749,0.05622 -15.97507,3.725499 -32.98136,17.418049 -40.72052,32.785957 -4.15834,8.257366 -4.93066,12.820802 -5.44653,32.182322 l -0.46255,17.35999 -13.50269,9.57194 c -7.42648,5.26457 -15.01081,10.55563 -16.85406,11.75791 l -3.35137,2.18596 -1.38365,-1.70873 c -1.61461,-1.99396 -4.68303,-11.11396 -6.50224,-19.32604 -1.71272,-7.73142 -2.3726,-28.31476 -1.19091,-37.147712 1.18483,-8.856341 6.67735,-25.492755 11.32946,-34.315992 6.82719,-12.948507 20.84268,-28.46807 35.89835,-39.750767 8.43927,-6.32438 24.7267,-14.4581511 30.68124,-15.321888 2.5312,-0.3671642 16.89726,-0.9016681 31.92456,-1.1877865 l 27.32239,-0.5202154 11.41268,5.7851799 c 14.97361,7.590234 24.0142,13.638437 32.60598,21.813557 16.0681,15.288891 26.73701,33.982721 31.8314,55.7743 1.1827,5.059053 1.43384,9.233175 1.43064,23.777964 -0.004,16.87513 -0.097,17.99168 -2.14757,25.69554 -4.50174,16.91299 -12.41061,31.60939 -24.08312,44.75167 -17.19874,19.36434 -42.95405,33.44381 -65.38981,35.74615 -12.40245,1.27273 -31.49378,0.941 -39.15442,-0.68035 z"
     id="path4584"
     inkscape:connector-curvature="0" />
  <path
     style="fill:#000000;fill-opacity:1;stroke-width:0.76703107"
     d=""
     id="path4588"
     inkscape:connector-curvature="0" />
  <path
     style="fill:#ffcc00;fill-opacity:1;stroke-width:0.76703107"
     d=""
     id="path4590"
     inkscape:connector-curvature="0" />
  <path
     style="fill:#ffcc00;fill-opacity:1;stroke-width:0.76703107"
     d="m 378.87273,219.11489 c -5.82587,-0.97453 -16.01805,-4.35577 -18.02261,-5.97896 -1.61879,-1.31081 -1.68642,-1.65954 -0.85809,-4.42427 2.10492,-7.02559 15.56566,-25.87499 20.56143,-28.79268 1.78002,-1.03958 5.9406,-1.67827 16.87327,-2.5902 24.87038,-2.07452 29.87543,-3.64284 41.57427,-13.02716 11.98984,-9.61777 19.69495,-20.62342 23.60138,-33.7112 1.82126,-6.10178 2.06141,-8.19459 2.06842,-18.02523 0.006,-8.96045 -0.31112,-12.3145 -1.63376,-17.258202 -2.08814,-7.804987 -6.54794,-17.093244 -11.09036,-23.097521 -7.73292,-10.221552 -23.50947,-20.80864 -34.78433,-23.342536 -4.58024,-1.029356 -27.64078,-1.0237 -33.08151,0.0081 -10.80449,2.049029 -23.27964,9.365226 -32.39548,18.998702 -13.0839,13.826851 -15.97456,23.544545 -16.04516,53.939917 l -0.0224,9.632 -3.25989,2.32427 c -23.01347,16.40846 -29.96794,21.05189 -30.95952,20.67139 -2.69698,-1.03493 -7.35465,-16.01823 -8.74868,-28.14369 -1.0914,-9.4931 -0.91216,-24.88948 0.37572,-32.274772 1.43457,-8.22644 6.51096,-23.008077 10.61294,-30.903192 6.67164,-12.840972 21.02094,-28.940186 35.43107,-39.751924 8.61375,-6.46279 25.24066,-14.943109 31.06476,-15.8441349 2.32026,-0.3589611 16.66533,-0.9047717 31.87791,-1.2129126 l 27.65925,-0.5602561 11.75237,5.9528066 c 15.25597,7.727453 24.06592,13.67254 32.92161,22.216016 15.3039,14.76435 25.57585,32.612833 30.91484,53.717411 2.20451,8.714248 2.85416,33.857468 1.13082,43.765578 -7.68531,44.18556 -47.6417,82.87796 -90.61845,87.75182 -8.13844,0.92296 -31.29509,0.89837 -36.89985,-0.0392 z"
     id="path4592"
     inkscape:connector-curvature="0" />
  <path
     style="fill:#ffcc00;fill-opacity:1;stroke-width:0.76703107"
     d="m 375.50344,4.6800908 c 6.01636,-1.4656476 41.12904,-1.8311419 46.7889,-0.4870342 2.70696,0.6428503 -1.69667,0.8378295 -20.41103,0.9037382 -13.12446,0.046222 -25.55037,0.2446509 -27.61312,0.4409528 -3.55457,0.3382713 -3.49005,0.2934765 1.23525,-0.8576568 z"
     id="path4594"
     inkscape:connector-curvature="0" />
  <path
     style="fill:#ffcc00;fill-opacity:1;stroke-width:0.76703107"
     d="m 373.1769,5.1638374 c 5.14043,-2.2376229 45.3176,-2.9106527 48.90967,-0.8193126 0.95257,0.5545958 -5.49356,0.7991176 -21.65462,0.8214276 -12.65601,0.017471 -24.39159,0.2094617 -26.07905,0.4266453 -2.67629,0.3444481 -2.82648,0.2896901 -1.176,-0.4287603 z"
     id="path4596"
     inkscape:connector-curvature="0" />
  <path
     style="fill:#ffcc00;fill-opacity:1;stroke-width:0.76703107"
     d="m 377.11774,218.76344 c -6.45146,-1.39952 -13.92338,-3.91058 -16.03283,-5.38809 -0.92902,-0.65071 -1.68912,-1.86534 -1.68912,-2.69918 0,-5.23456 15.84931,-28.08564 21.51044,-31.01312 1.29672,-0.67056 7.40488,-1.59589 15.07171,-2.28323 23.29004,-2.08797 29.05624,-3.40869 36.47659,-8.35475 14.67804,-9.78369 24.80539,-22.5641 29.84828,-37.66762 1.61368,-4.833 1.79272,-6.74807 1.79272,-19.17578 0,-15.615401 -0.66841,-18.694049 -6.74455,-31.064757 -2.66116,-5.417994 -4.50059,-7.815966 -10.8849,-14.190076 -8.24066,-8.22751 -15.83463,-13.280122 -24.94077,-16.594236 -4.65004,-1.69235 -6.07013,-1.814407 -21.09336,-1.812986 -20.38969,0.0019 -24.02382,0.9381 -36.77362,9.473099 -14.49095,9.700574 -23.52885,22.096543 -26.16819,35.891086 -0.59349,3.10192 -1.31153,12.87363 -1.59564,21.71491 l -0.51656,16.07505 -15.02892,10.65299 c -8.26591,5.85915 -15.92176,11.22707 -17.01301,11.92873 l -1.98408,1.27574 -1.97552,-3.64954 c -2.374,-4.38568 -5.56441,-15.96615 -6.67346,-24.22313 -1.15863,-8.62612 -0.99343,-26.08949 0.31793,-33.609378 1.4282,-8.189913 6.17262,-22.260885 10.18673,-30.211738 4.58044,-9.072586 11.51066,-18.041892 21.61544,-27.975355 12.75519,-12.538938 26.11894,-21.664461 38.92246,-26.5784498 4.82933,-1.8534938 6.55525,-2.0578491 22.11285,-2.6182486 9.28108,-0.334313 23.20292,-0.6325182 30.93744,-0.6626781 l 14.06275,-0.054836 10.48225,5.4875755 c 17.16157,8.984284 24.74203,14.299106 34.68425,24.317876 15.15574,15.272439 24.84925,32.578401 29.5454,52.747849 1.56745,6.731979 2.39882,23.318793 1.71996,34.314923 -1.47581,23.90504 -12.60645,47.08923 -31.71932,66.06869 -16.502,16.38681 -39.22464,27.99143 -59.31755,30.2939 -9.70352,1.11193 -33.24739,0.86213 -39.1358,-0.41524 z"
     id="path4598"
     inkscape:connector-curvature="0" />
  <path
     style="fill:#ffcc00;fill-opacity:1;stroke-width:0.76703107"
     d="m 377.11774,218.76344 c -6.45146,-1.39952 -13.92338,-3.91058 -16.03283,-5.38809 -2.3897,-1.67382 -2.10366,-3.74768 1.40463,-10.18384 5.54854,-10.17911 14.34219,-21.42146 18.39494,-23.51722 1.18262,-0.61155 7.39592,-1.61186 13.91049,-2.23951 17.82614,-1.71747 27.39871,-3.34948 31.99862,-5.45539 6.26143,-2.86658 12.85503,-7.90377 19.73876,-15.07946 9.20414,-9.59449 15.23695,-20.93669 17.22787,-32.38985 1.16157,-6.68219 0.50114,-24.518657 -1.12269,-30.320534 -1.72959,-6.179732 -7.45161,-17.470607 -11.24883,-22.196507 -5.55861,-6.918093 -14.90816,-14.348136 -23.34363,-18.55108 -9.05367,-4.510962 -13.09553,-5.30579 -26.84609,-5.279258 -18.561,0.03581 -24.70525,1.634254 -36.90125,9.599962 -8.07286,5.272713 -16.50781,13.506726 -20.40011,19.914147 -5.06021,8.330002 -6.71891,14.867715 -7.54942,29.75584 -0.40457,7.2525 -0.8207,15.73504 -0.92473,18.85008 l -0.18916,5.66372 -16.83301,11.8231 -16.83301,11.82309 -1.77707,-2.91322 c -1.89391,-3.10478 -4.16069,-10.023 -6.20166,-18.92749 -1.86087,-8.11881 -1.81078,-37.300931 0.0756,-44.021136 6.78201,-24.161147 13.5668,-36.136819 29.68019,-52.387812 13.11934,-13.231378 26.4638,-22.580448 39.5021,-27.6750205 5.88163,-2.2981801 6.78872,-2.4231608 21.86039,-3.0119735 8.64827,-0.3378667 22.5984,-0.6354122 31.0003,-0.6612124 l 15.27616,-0.046909 10.41938,5.4606674 c 14.60322,7.653371 24.29096,14.177181 32.0156,21.55962 15.65867,14.964954 26.13074,32.470489 31.32698,52.36743 3.73487,14.301225 3.78476,39.217936 0.10706,53.477966 -4.95057,19.19553 -14.31531,35.20881 -29.28221,50.07123 -16.502,16.38681 -39.22464,27.99143 -59.31755,30.2939 -9.70352,1.11193 -33.24739,0.86213 -39.1358,-0.41524 z"
     id="path4600"
     inkscape:connector-curvature="0" />
  <path
     style="fill:#ffcc00;fill-opacity:1;stroke-width:0.76703107"
     d="m 377.03751,218.78229 c -5.88128,-1.20687 -13.38792,-3.75123 -15.87487,-5.38074 -2.48691,-1.62949 -2.20503,-3.72936 1.38622,-10.32669 5.7088,-10.48743 14.14681,-21.23445 18.39841,-23.43303 1.13947,-0.58925 7.52431,-1.61609 14.18853,-2.28187 16.78056,-1.67644 27.78753,-3.67006 32.63299,-5.91058 8.66671,-4.00745 21.98901,-16.34815 27.37589,-25.35877 4.19077,-7.00989 7.6752,-15.89749 8.63305,-22.01996 1.435,-9.17242 0.46657,-24.606461 -2.00618,-31.97266 -5.82333,-17.347423 -17.74284,-30.825325 -34.49351,-39.003299 -9.01929,-4.403381 -14.71717,-5.282842 -30.68124,-4.735617 -14.65392,0.502314 -19.04726,1.657398 -28.98308,7.620133 -12.55671,7.535603 -20.71372,15.653358 -25.70626,25.582556 -3.9684,7.892379 -4.87807,12.968728 -5.81266,32.437137 l -0.86049,17.92488 -15.70818,11.09764 c -8.6395,6.10371 -16.30999,11.41972 -17.04552,11.81337 -1.11461,0.59652 -1.67553,0.0483 -3.36804,-3.29169 -1.11689,-2.20407 -3.08439,-7.99267 -4.37222,-12.86356 -2.27363,-8.59938 -2.34323,-9.36765 -2.40065,-26.49787 -0.0571,-17.026999 0.0143,-17.89883 2.0471,-25.020706 6.30236,-22.079709 13.17052,-33.895151 28.95853,-49.817982 13.1532,-13.265518 26.49989,-22.629106 39.39312,-27.6368725 5.9347,-2.3050531 6.98894,-2.456751 21.20234,-3.0508675 8.2264,-0.3438619 22.17654,-0.6436922 31.0003,-0.6662896 l 16.04319,-0.041086 10.41938,5.4606676 c 15.05469,7.889978 24.47573,14.312004 32.80231,22.360294 15.60838,15.086718 26.28671,33.403713 30.98112,53.143188 1.91966,8.071936 2.85036,23.764204 2.13736,36.037024 -1.37091,23.59711 -12.59001,46.89046 -31.75757,65.93574 -16.30482,16.20082 -38.76222,27.75936 -58.8212,30.27455 -8.86331,1.11136 -33.59957,0.87648 -39.70817,-0.37704 z"
     id="path4602"
     inkscape:connector-curvature="0" />
</svg>
